<?xml version="1.0" encoding="UTF-8" standalone="no"?>
<!-- Created with Inkscape (http://www.inkscape.org/) -->

<svg
   version="1.1"
   id="svg1"
   width="1024"
   height="1024"
   viewBox="0 0 1024 1024"
   sodipodi:docname="logo simple.svg"
   inkscape:export-filename="logo simple.jpeg.svg"
   inkscape:export-xdpi="96"
   inkscape:export-ydpi="96"
   inkscape:version="1.3 (0e150ed6c4, 2023-07-21)"
   xmlns:inkscape="http://www.inkscape.org/namespaces/inkscape"
   xmlns:sodipodi="http://sodipodi.sourceforge.net/DTD/sodipodi-0.dtd"
   xmlns="http://www.w3.org/2000/svg"
   xmlns:svg="http://www.w3.org/2000/svg">
  <defs
     id="defs1" />
  <sodipodi:namedview
     id="namedview1"
     pagecolor="#ffffff"
     bordercolor="#000000"
     borderopacity="0.25"
     inkscape:showpageshadow="2"
     inkscape:pageopacity="0.0"
     inkscape:pagecheckerboard="0"
     inkscape:deskcolor="#d1d1d1"
     inkscape:zoom="1.0869005"
     inkscape:cx="548.8083"
     inkscape:cy="535.92764"
     inkscape:window-width="1920"
     inkscape:window-height="1001"
     inkscape:window-x="-9"
     inkscape:window-y="-9"
     inkscape:window-maximized="1"
     inkscape:current-layer="g1" />
  <g
     inkscape:groupmode="layer"
     inkscape:label="Image"
     id="g1">
    <path
       style="fill:#000000"
       d="m 486.29953,756.23101 c -53.92625,-4.27418 -98.62968,-23.1866 -141.00091,-59.65244 -11.0666,-9.52422 -19.5766,-18.46053 -31.65283,-33.23848 -7.50968,-9.18977 -20.84626,-27.41302 -20.84626,-28.48457 0,-1.04986 17.42711,-9.42761 24.77442,-11.90983 8.19701,-2.76928 19.51838,-4.33411 25.19794,-3.48285 9.54039,1.42994 14.38006,11.28224 8.60271,17.51286 -1.84887,1.99392 -3.80874,2.78351 -8.25,3.32375 -7.63554,0.9288 -14.48296,2.39291 -16.21147,3.46631 -1.08424,0.67332 -0.16154,2.48841 4.23365,8.32824 15.61156,20.74292 39.39719,41.31138 64.89584,56.11826 51.82989,30.09725 115.31038,36.66129 172.35678,17.82212 36.90199,-12.18662 77.19223,-40.52181 102.65414,-72.19429 3.31614,-4.125 6.91544,-8.2875 7.99845,-9.25 2.88328,-2.56245 8.03908,-2.21701 11.59729,0.77703 3.82303,3.21686 4.77927,7.34514 2.71097,11.70377 -2.58082,5.43866 -20.4625,25.58122 -31.62268,35.6209 -39.04539,35.12519 -79.81797,54.86597 -127.43804,61.70144 -10.16335,1.45886 -38.89949,2.55909 -48,1.83778 z M 473.36338,629.77874 c -5.70252,-0.95437 -9.47453,-3.41495 -11.46418,-7.47839 -2.04863,-4.18388 0.21474,-10.12459 4.78249,-12.55272 2.98638,-1.5875 5.15127,-1.72889 18.5,-1.20825 12.58692,0.49092 16.12231,0.30072 21.11784,-1.13614 11.89531,-3.42143 20.10748,-10.88355 24.66324,-22.41062 2.18103,-5.51848 2.24327,-6.79421 2.62428,-53.79174 l 0.39027,-48.13921 8.6611,-1.54708 c 28.39287,-5.07163 35.41273,-5.46565 45.24761,-2.53972 6.36623,1.894 15.05193,10.69471 17.71191,17.94644 4.16253,11.34807 3.83223,25.34412 -0.83231,35.26751 -3.36286,7.15416 -12.82178,16.7731 -20.12543,20.46589 -6.30232,3.18651 -17.5091,6.13481 -23.44519,6.16801 l -3.10451,0.0174 -0.57511,12.25 c -0.64738,13.7895 -2.29064,20.36696 -7.38545,29.56171 -8.1625,14.7311 -22.55674,24.74862 -41.33041,28.76349 -7.05296,1.50832 -27.35138,1.71651 -35.43615,0.36345 z m 97.43615,-95.14338 c 8.67582,-2.58492 13.93836,-9.98067 13.97803,-19.64414 0.0433,-10.53676 -5.42805,-16.61148 -14.27478,-15.8491 -5.72364,0.49324 -10.18324,4.16682 -11.704,9.64112 -0.54346,1.95627 -0.99061,9.09692 -0.99368,15.86812 l -0.006,12.31127 4.75,-0.64223 c 2.6125,-0.35322 6.325,-1.11149 8.25,-1.68504 z m 25.49961,75.85569 c -3.94714,-1.76876 -5.47653,-3.73388 -6.15373,-7.90695 -0.77477,-4.77435 1.75004,-9.31123 5.88672,-10.57797 1.79707,-0.5503 8.2174,-1.28692 14.2674,-1.63694 26.96624,-1.56009 83.296,-5.65804 96.59005,-7.02685 18.31664,-1.88597 27.83687,-4.2934 40.02655,-10.12172 10.57349,-5.05556 13.78587,-5.24215 17.74243,-1.03059 4.98651,5.3079 2.96651,12.19684 -5.07279,17.30004 -14.77737,9.38039 -33.4618,13.77968 -69.28624,16.31361 -46.41455,3.28298 -57.10757,3.99407 -68,4.52206 -6.6,0.31991 -14.475,0.7905 -17.5,1.04574 -3.41898,0.28849 -6.63525,-0.0446 -8.50039,-0.88043 z m -341.49961,-9.76246 c -10.74983,-1.71545 -15.0329,-3.11681 -18.00137,-5.88978 -2.50457,-2.33962 -2.99863,-3.57152 -2.99863,-7.47686 0,-3.88452 0.51893,-5.19464 3.06677,-7.74248 l 3.06677,-3.06677 9.18323,0.7261 c 5.05077,0.39936 13.68323,1.07822 19.18323,1.50858 20.39218,1.59562 37.29053,-1.90055 45.01463,-9.31326 5.72299,-5.49227 6.60413,-9.80582 3.3452,-16.37627 -3.16875,-6.38866 -8.41539,-9.71771 -25.45757,-16.15313 -18.99822,-7.17405 -27.1163,-11.31431 -33.71281,-17.19368 -21.15487,-18.85503 -14.9449,-52.15245 12.29052,-65.90085 10.87738,-5.49088 19.60338,-7.25689 36.52003,-7.3911 25.99165,-0.20621 37.5,4.29658 37.5,14.67235 0,3.44163 -0.63289,5.30733 -2.5889,7.63192 -3.0982,3.682 -6.26198,3.92156 -19.33317,1.46388 -10.27623,-1.93216 -26.9017,-1.43884 -34.7838,1.03213 -6.06949,1.90272 -12.82011,6.75358 -16.03272,11.52077 -3.50396,5.19953 -3.12497,11.7755 0.98859,17.15335 3.8778,5.06963 10.66716,8.73509 28.53785,15.40708 24.22602,9.04474 32.20479,14.37994 38.1298,25.4964 2.36917,4.44502 3.35094,7.81888 3.78628,13.01164 1.88262,22.4559 -14.64174,40.21464 -42.8318,46.03136 -10.14778,2.09389 -34.21634,2.54907 -44.87213,0.84862 z m 103,-53.69331 c 0,-38.23779 0.1203,-41.09664 1.75,-41.58726 1.91097,-0.57529 20.60408,-3.60793 22.23923,-3.60793 1.19445,0 1.27632,12.55467 0.34988,53.65821 l -0.6572,29.15821 -8.09096,1.15157 c -4.45002,0.63336 -9.77845,1.40718 -11.84095,1.71959 l -3.75,0.56803 z m 43,-6.05604 v -40.82258 l 4.25,-1.2746 c 2.3375,-0.70104 6.95,-1.50116 10.25,-1.77805 3.3,-0.27689 8.5733,-1.34955 11.71845,-2.38368 11.91097,-3.91636 24.36374,-1.22778 30.28792,6.53922 l 2.77231,3.63469 2.23813,-3.27708 c 3.05073,-4.46688 9.38273,-9.3716 16.2569,-12.59246 4.7158,-2.20956 7.138,-2.68316 13.72629,-2.68382 9.44635,-9.4e-4 15.96488,2.62 20.14433,8.09954 4.98642,6.53754 5.26468,8.69215 5.31177,41.13061 l 0.0439,30.23095 -2.25,0.50988 c -4.64333,1.05223 -15.36721,2.51339 -18.5,2.52067 l -3.25,0.008 -0.006,-25.75 c -0.003,-14.50823 -0.4533,-27.36205 -1.03113,-29.44249 -1.39008,-5.005 -3.89827,-5.6217 -9.50366,-2.33673 -3.40882,1.9977 -5.25348,4.10707 -7.71941,8.8271 l -3.24022,6.20212 -0.5,22.99817 -0.5,22.99817 -7.5,1.1114 c -4.125,0.61126 -9.60195,1.3861 -12.171,1.72186 l -4.671,0.61048 -0.36052,-23.72004 c -0.30743,-20.22663 -0.62983,-24.34652 -2.18908,-27.97377 -3.22027,-7.49127 -9.46742,-10.99764 -14.65123,-8.22336 -4.11834,2.20407 -4.43822,4.39658 -4.95717,33.97709 l -0.5,28.5 -7,1.11939 c -3.85,0.61567 -9.1375,1.39456 -11.75,1.73087 l -4.75,0.61148 z m 249,11.94253 c -5.46945,-1.07564 -12.88937,-5.19165 -16.24157,-9.0096 -1.68091,-1.91445 -4.22671,-5.97636 -5.65732,-9.02645 l -2.60111,-5.54563 -0.32132,-47.5 c -0.33788,-49.94827 0.10492,-57.31495 4.08554,-67.96901 2.86872,-7.67809 10.67239,-15.34075 17.76941,-17.44834 7.12206,-2.11502 9.71739,-1.99953 14.99641,0.66735 16.67801,8.42547 13.62597,36.58263 -7.41951,68.44987 l -6.73611,10.19987 0.31279,25.63826 0.31279,25.63825 2.80576,2.41187 c 5.37555,4.6209 14.50306,2.1374 23.89974,-6.50287 l 5.00086,-4.5983 0.26421,-10.99348 c 0.30499,-12.6902 2.14111,-18.68903 8.74921,-28.58475 7.87072,-11.78649 19.67201,-18.63581 33.82998,-19.63451 14.21001,-1.00236 24.07286,4.15678 29.63467,15.50154 4.01799,8.19573 3.94696,16.0511 -0.20586,22.76814 -5.94453,9.61504 -14.55135,14.02281 -34.25744,17.54408 -6.44662,1.15194 -11.88831,2.25807 -12.09263,2.45806 -0.20432,0.19999 0.80182,2.36573 2.23587,4.81275 5.11365,8.72579 17.93692,11.46255 31.13563,6.645 11.1137,-4.05652 12.94161,-4.3439 16.36611,-2.57302 6.02907,3.11776 8.12078,9.88791 4.67823,15.1419 -3.1194,4.76081 -17.79351,10.56815 -30.11215,11.91701 -12.44896,1.36313 -26.81646,-3.43022 -35.84547,-11.95893 l -4.83771,-4.56965 -4.74801,4.4412 c -5.92984,5.54667 -14.80507,10.0904 -22.48126,11.50942 -6.40655,1.18432 -7.30023,1.19645 -12.51974,0.16997 z m 71.34917,-58.75895 c 4.58397,-1.02275 7.88294,-2.45182 9.97489,-4.32098 2.91392,-2.60358 3.033,-2.96605 1.75745,-5.34944 -1.89296,-3.53703 -6.18254,-4.86225 -11.72095,-3.62107 -7.74444,1.73557 -13.30889,6.18356 -17.32257,13.84695 l -1.24557,2.37819 5.85379,-0.70275 c 3.21958,-0.38651 8.93592,-1.39041 12.70296,-2.2309 z m -69.37201,-74.57273 c 0.023,-2.76426 -1.70544,-3.83291 -2.42604,-1.5 -0.21236,0.6875 -0.6177,5.075 -0.90076,9.75 l -0.51465,8.5 1.90931,-7 c 1.05011,-3.85 1.91958,-8.2375 1.93214,-9.75 z m -288.36228,58.1617 c -10.3847,-8.1686 -5.14849,-23.9117 7.9531,-23.9117 4.72765,0 10.93249,5.82038 11.94212,11.20218 1.95962,10.44563 -11.68891,19.16461 -19.89522,12.70952 z M 691.29953,409.9854 c -1.71845,-1.05811 -5.09287,-5.38666 -7.89922,-10.13274 -7.42695,-12.56043 -15.93584,-23.34909 -28.09465,-35.62198 -19.10777,-19.28707 -38.98473,-33.6441 -62.38056,-45.05717 -34.37737,-16.77014 -68.79499,-23.74185 -105.14231,-21.29787 -48.39912,3.25434 -95.51447,23.74433 -130.21354,56.62858 -15.40264,14.59705 -29.88226,31.74862 -34.57912,40.96008 -4.81453,9.44224 -13.48606,12.37866 -18.60171,6.29906 -3.74569,-4.4515 -3.2768,-7.49427 2.66111,-17.26862 10.60519,-17.45714 33.61333,-43.14 51.25,-57.20786 26.70265,-21.29933 57.77768,-36.21659 91.5,-43.92366 22.64343,-5.17505 30.36667,-6.03547 53,-5.90459 16.04436,0.0928 23.32552,0.59451 33.5,2.30838 68.0241,11.45856 127.44944,50.92836 163.32491,108.47902 6.57957,10.55479 7.49277,14.26779 4.54439,18.47718 -1.43433,2.0478 -6.9007,5.12359 -9.08718,5.11314 -0.43017,-0.002 -2.13212,-0.83498 -3.78212,-1.85095 z m -198.59967,-4.13627 c -12.89783,-6.81702 -15.6607,-24.05018 -5.58827,-34.85636 8.04501,-8.63107 22.4368,-8.39541 30.88489,0.50573 12.91408,13.60664 2.6787,36.45144 -16.26268,36.29739 -3.33789,-0.0272 -6.82292,-0.77815 -9.03394,-1.94676 z"
       id="path1" />
  </g>
</svg>
