<svg width="796.80505" height="950.7652" xmlns="http://www.w3.org/2000/svg">
  <path style="fill:#000" d="M511.86929 293.18136c3.07906-.52145 7.00238-1.36571 13.0116-3.02942s14.10401-4.14678 22.77017-7.02722c8.66617-2.88045 17.90317-6.15809 26.56932-9.28685 8.66616-3.12875 16.76095-6.10843 24.93048-8.83988 8.16953-2.73145 16.4133-5.21452 28.69455-7.62103 12.28125-2.40652 28.59916-4.73635 39.36351-5.95307 10.76436-1.21673 15.97463-1.32031 24.56424-.75131 8.58962.569 20.55799 1.81053 31.27273 3.47424 10.71473 1.66371 20.17521 3.74948 28.51855 5.92223 8.34333 2.17275 15.56905 4.43234 21.42925 6.51818 5.8602 2.08584 10.35454 3.99779 15.23392 6.26987 4.87937 2.27208 10.14347 4.90413 16.10301 8.26879 5.95954 3.36466 12.61416 7.46172 18.37503 11.38507 5.76088 3.92336 10.62769 7.67279 15.07251 11.38508 4.44481 3.7123 8.46737 7.38723 13.0736 12.10521 4.60624 4.71797 9.79584 10.47869 13.94267 15.39529 4.14683 4.91661 7.25067 8.98884 4.41983 14.05446-2.83084 5.06561-11.59606 11.12429-20.99475 18.62338-9.39869 7.4991-19.43028 16.43814-28.09642 25.93615-8.66614 9.49802-15.96635 19.55443-22.41009 30.443-6.44374 10.88858-12.03064 22.60865-16.66169 38.2773-4.63104 15.66865-8.30598 35.28486-9.95725 51.32591-1.65126 16.04105-1.2788 28.50603.1366 40.8224 1.4154 12.31638 3.87364 24.4834 7.42454 36.42729 3.55089 11.9439 8.19423 23.66397 13.4709 34.19247 5.27668 10.5285 11.18638 19.86483 18.48682 29.2511 7.30045 9.38626 15.99117 18.82191 25.11672 27.37632 9.12554 8.55441 18.68534 16.22708 27.62464 22.49699 8.93929 6.26991 17.25756 11.13672 23.44055 14.43928 6.183 3.30256 10.2304 5.04071 10.06895 11.78248-.16144 6.74178-4.53164 18.48668-9.3241 30.07052-4.79247 11.58385-10.0069 23.00595-15.63122 34.31665-5.62431 11.3107-11.65816 22.50932-17.56803 32.56602-5.90987 10.05671-11.69541 18.97091-18.32541 28.75449-6.62999 9.78358-14.10401 20.43593-21.46652 30.21949-7.36251 9.78356-14.61306 18.69777-25.31543 29.94641-10.70236 11.24865-24.85583 24.83101-37.44533 34.5028-12.58951 9.67179-23.61432 15.4325-32.92608 19.2441-9.31175 3.8116-16.90993 5.6739-22.26107 6.7044-5.35115 1.03049-8.45498 1.22914-14.46421 1.00565-6.00922-.22348-14.92343-.86908-23.0557-2.01133-8.13228-1.14225-15.48215-2.78107-23.78826-5.22697-8.30611-2.4459-17.56795-5.69872-28.41928-9.51035-10.85134-3.81162-23.29149-8.18181-34.11796-11.22365-10.82648-3.04183-20.03865-4.75514-27.04108-5.89738-7.00243-1.14224-11.79475-1.71334-20.24988-1.73817-8.45512-.0248-20.57248.49662-32.56605 2.17275-11.99356 1.67613-23.86261 4.50682-35.33471 7.90873-11.4721 3.4019-22.54657 7.3748-34.47807 11.34783-11.93149 3.97302-24.71928 7.94593-34.82563 10.59046-10.10635 2.64453-17.53072 3.96056-24.66974 4.5565-7.13902.59595-13.99228.4718-20.83333-.42214-6.84105-.89394-13.66948-2.55759-22.90679-6.67963-9.2373-4.12204-20.88288-10.70216-30.70368-17.39422-9.82079-6.69207-17.81626-13.49566-24.3469-19.64143-6.53065-6.14576-11.5961-11.63334-17.76672-18.7103-6.17061-7.07696-13.44599-15.74286-22.48463-27.64955-9.03865-11.90669-19.83998-27.05338-28.67994-40.22642-8.83996-13.17304-15.71805-24.37166-24.24765-40.32588s-18.71017-36.66298-26.96659-56.10595c-8.25642-19.44297-14.58824-37.61901-19.50484-52.91512-4.9166-15.29611-8.41772-27.71144-11.96861-43.92638-3.55089-16.21494-7.15133-36.22844-9.38615-51.13965-2.23481-14.9112-3.10388-24.71931-3.50118-39.50645-.397298-14.78715-.322805-34.55235.57113-51.31351.89394-16.76116 2.60725-30.51735 4.68068-42.28741 2.07342-11.77006 4.50683-21.55334 7.62317-31.47348 3.11635-9.92014 6.91544-19.97656 10.9878-29.48698 4.07235-9.51042 8.41771-18.47428 13.39641-27.43842 4.9787-8.96413 10.59043-17.928 16.46306-26.17201 5.87263-8.24402 12.0058-15.76771 18.2509-22.60875 6.24509-6.84104 12.60174-12.99904 18.68543-18.32537 6.08369-5.32633 11.89406-9.82067 17.71702-13.94268 5.82297-4.12201 11.65817-7.87144 18.33783-11.81963 6.67965-3.9482 14.20333-8.09492 21.00713-11.36024 6.80379-3.26532 12.8873-5.64906 20.11325-8.1322 7.22595-2.48314 15.59388-5.06553 25.65061-7.31277 10.05673-2.24723 21.80163-4.15919 31.82108-5.21452 10.01946-1.05532 18.31289-1.25397 26.9418-.67042 8.62892.58354 17.59279 1.94923 27.38878 4.0599 9.79599 2.11068 20.42351 4.96621 32.57849 8.77784 12.15499 3.81163 25.83668 8.57911 36.83696 12.32864 11.00028 3.74953 19.31855 6.4809 26.6438 8.69089 7.32526 2.20999 13.65707 3.89847 18.21362 5.02829 4.55654 1.12983 7.33757 1.70093 9.84554 1.88716 2.50797.18624 4.74273-.0124 7.82179-.53387zm-7.15495-49.59745c-3.73815-4.37402-4.22624-12.94649-3.30321-23.57721.92304-10.63071 3.25712-23.31917 6.8701-36.05768 3.61299-12.73851 8.50462-25.52629 15.4326-38.88559 6.92799-13.3593 15.89185-27.28929 24.69458-38.64963 8.80273-11.360339 17.4438-20.150391 25.11447-27.273956 7.67067-7.123564 14.37051-12.580253 23.39194-18.346295 9.02142-5.766042 20.36384-11.841085 30.0912-16.494059 9.72737-4.652975 17.83913-7.883632 24.63423-10.289131 6.79511-2.405498 12.27318-3.985711 18.08503-5.372827 5.81185-1.387116 11.95712-2.581054 16.96127-3.388739 5.00415-.807685 8.86689-1.229075 10.93877 3.47664 2.07188 4.705716 2.35281 14.538152 1.72069 24.915201-.63211 10.377049-2.17721 21.298076-4.44226 31.306382-2.26505 10.008306-5.24989 19.103314-8.44553 27.267984-3.19564 8.16467-6.60188 15.39853-10.83347 23.08914-4.23159 7.6906-9.28828 15.83748-13.60765 22.26386-4.31937 6.42637-7.90118 11.13189-12.53663 16.57502-4.63544 5.44312-10.32421 11.62351-16.36432 17.57582-6.04011 5.95232-12.43119 11.6762-18.92782 16.89105-6.49662 5.21486-13.0984 9.92038-19.82329 14.16952-6.72489 4.24914-13.57248 8.04166-19.5599 10.92123-5.98742 2.87958-11.11433 4.84606-16.29407 6.61946-5.17975 1.7734-10.41201 3.35362-13.83589 4.31932-3.42388.96571-5.03921 1.31687-8.44556 1.82607-3.40636.5092-8.60351 1.1764-14.6963 1.42221-6.09279.24581-13.08084.0702-16.81898-4.30379z" transform="translate(-100.06338 -24.74525)"/>
</svg>
