<?xml version="1.0" encoding="UTF-8" standalone="no"?>
<!-- Created with Inkscape (http://www.inkscape.org/) -->

<svg
   version="1.1"
   id="svg1"
   width="192.02484"
   height="229.48558"
   viewBox="0 0 192.02484 229.48558"
   sodipodi:docname="imagen_2023-10-07_195235249-transformed-removebg-preview.png"
   xmlns:inkscape="http://www.inkscape.org/namespaces/inkscape"
   xmlns:sodipodi="http://sodipodi.sourceforge.net/DTD/sodipodi-0.dtd"
   xmlns="http://www.w3.org/2000/svg"
   xmlns:svg="http://www.w3.org/2000/svg">
  <defs
     id="defs1" />
  <sodipodi:namedview
     id="namedview1"
     pagecolor="#ffffff"
     bordercolor="#000000"
     borderopacity="0.25"
     inkscape:showpageshadow="2"
     inkscape:pageopacity="0.0"
     inkscape:pagecheckerboard="0"
     inkscape:deskcolor="#d1d1d1" />
  <g
     inkscape:groupmode="layer"
     inkscape:label="Image"
     id="g1"
     transform="translate(-196,-98.514424)">
    <path
       style="fill:#000000"
       d="m 280,321 v -7 h 1.41729 1.41729 l 1.75551,4.59674 1.75552,4.59674 1.57719,-4.26414 1.5772,-4.26415 1.25,-0.41593 1.25,-0.41593 V 320.91667 328 h -1 -1 l -0.0262,-4.25 -0.0262,-4.25 -1.85876,4 -1.85876,4 -1.85804,-4 -1.85805,-4 -0.31447,4.25 L 281.885,328 H 280.9425 280 Z m 15.54206,6.06806 -0.57597,-0.93194 2.7584,-0.31806 2.75841,-0.31806 0.3312,-1.74649 0.3312,-1.7465 -1.58539,0.60837 -1.58538,0.60837 -1.48726,-1.23432 L 295,320.75511 v -2.8585 -2.85851 l 2.58464,-0.6487 2.58463,-0.6487 1.64264,1.64264 1.64264,1.64263 v 3.86071 3.8607 l -1.34972,1.62631 L 300.75511,328 h -2.31854 -2.31854 z m 4.95794,-8.6377 v -1.90297 l -1.75,-0.33702 -1.75,-0.33702 v 1.90666 1.90666 l 0.6875,0.6875 0.6875,0.6875 1.0625,-0.35417 1.0625,-0.35417 z M 205,321 v -1 h 35.5 35.5 v 1 1 H 240.5 205 Z m 103,0 v -1 h 35.5 35.5 v 1 1 H 343.5 308 Z m 48.34375,-17.99428 -4.15626,-0.86942 -4.05923,-2.07086 -4.05922,-2.07087 -4.04029,-4.20473 -4.04028,-4.20473 -2.09798,-5.54256 -2.09797,-5.54255 v -6 -6 l 2.25753,-5.96901 2.25753,-5.96901 5.1272,-5.1272 5.1272,-5.1272 5.96901,-2.25278 5.96901,-2.25277 5.61341,0.49177 5.61342,0.49177 4.38658,1.95329 4.38659,1.9533 4.25,4.27156 4.25,4.27157 0.008,1.13236 0.008,1.13235 -5.52814,5.12031 -5.52814,5.12032 -1.63986,-2.77606 -1.63986,-2.77606 -3.93729,-2.21288 -3.9373,-2.21289 -4.0662,0.54539 -4.0662,0.5454 -2.58657,1.91169 -2.58658,1.91169 -1.70197,3.41154 -1.70197,3.41155 -0.048,4.79966 -0.048,4.79966 1.48491,2.8715 1.48491,2.8715 2.82609,2.01235 2.82608,2.01235 2.55472,0.64119 2.55471,0.6412 4.24924,-1.1442 4.24924,-1.1442 2.23732,-2.23733 2.23733,-2.23732 0.39931,-1.19793 0.39931,-1.19793 6.26087,5.8659 6.26088,5.86591 -4.58679,4.22796 -4.58679,4.22795 -4.17567,1.84504 -4.17567,1.84503 -5,0.50343 -5,0.50342 z M 196.68241,302.34907 196,301.66667 V 261.83333 222 h 28 28 v 8.5 8.5 H 232.5 213 v 7.5 7.5 h 13 13 v 8.5 8.5 h -13 -13 v 7.5 7.5 h 19.54044 19.54044 l -0.29044,8.25 -0.29044,8.25 -27.06759,0.26574 -27.0676,0.26574 z M 261,272.54206 V 242 h 1.91844 1.91844 l 2.19189,3.54656 2.1919,3.54655 0.63966,-0.3445 0.63967,-0.34451 5.63138,-2.72105 5.63137,-2.72105 9.61863,-0.63182 L 301,241.69835 V 249.84918 258 h -7.03212 -7.03212 l -3.21788,1.3451 -3.21788,1.34509 -1.5,1.80507 -1.5,1.80507 -0.5,19.09983 -0.5,19.09984 -7.75,0.29206 -7.75,0.29207 z M 308,272.5 V 242 h 8 8 v 30.5 30.5 h -8 -8 z m 3.5,-36.66068 -2,-1.09987 -1.72776,-2.11972 -1.72777,-2.11973 -0.0222,-4.02749 -0.0222,-4.0275 1.5031,-2.14598 1.5031,-2.14597 3.4969,-1.15408 3.4969,-1.15408 3.41809,1.12807 3.41809,1.12807 1.58191,2.4143 1.58191,2.41429 v 3.84406 3.84405 l -1.25,1.54483 -1.25,1.54482 -2.47251,1.64631 -2.4725,1.6463 -2.5275,-0.0304 -2.52749,-0.0304 z M 265.74279,178.24292 240,152.48585 v -1.00014 -1.00013 L 266,124.5 292,98.514424 318,124.5 344,150.48558 V 151.5 152.51442 L 318.24292,178.25721 292.48585,204 h -0.50014 -0.50013 z m 46.52306,-7.00855 19.7471,-19.76564 -8.29888,-8.25577 -8.29888,-8.25577 -2.90884,3.03618 -2.90884,3.03618 5.19227,5.25758 5.19227,5.25758 -13.98057,13.95381 -13.98057,13.95381 -5.30807,-5.24213 -5.30806,-5.24213 -2.90884,3.03617 -2.90884,3.03617 7.93299,7.9798 7.93299,7.97979 h 0.53284 0.53283 z m -43.03362,-14.49921 -5.21428,-5.27987 13.98057,-13.95381 13.98057,-13.95381 5.30807,5.24213 5.30806,5.24213 2.91656,-3.04422 2.91655,-3.04423 -8.21326,-8.21326 -8.21327,-8.21327 -19.99516,19.97641 -19.99515,19.97641 8.2236,8.26654 8.22359,8.26654 2.99392,-2.99391 2.99392,-2.99392 z m 30.54355,1.99056 7.22573,-7.27427 -7.50075,-7.4507 -7.50076,-7.45069 -7.50076,7.45069 -7.50075,7.4507 7.22573,7.27427 L 291.44994,166 H 292 h 0.55006 z"
       id="path1" />
  </g>
</svg>
